# xmcd CD database file
#
# Track frame offsets:
#	150
#	12820
#	39516
#	42085
#	59399
#	72640
#	74263
#	97147
#	98754
#	120548
#	125735
#	147647
#	151633
#	176029
#	178897
#	210012
#
# Disc length: 2999 seconds
#
# Revision: 0
# Processed by: cddbd v1.5.1PL0 Copyright (c) Steve Scherf et al.
# Submitted via: CDex 1.51
#
DISCID=e40bb510
DTITLE=野中 英次 - 魁!!クロマティ高校 特別編
DYEAR=1900
DGENRE=本 (一般)
TTITLE0=Live Killers
TTITLE1=Dozed And Confused
TTITLE2=Two Of Us
TTITLE3=This Means War
TTITLE4=Going Underground
TTITLE5=The Two Of Us
TTITLE6=See Me, Feel Me
TTITLE7=Midnight Rider
TTITLE8=Larks' Tongues In A China Bowl
TTITLE9=Just The Two Of Us
TTITLE10=Inside Looking Out
TTITLE11=More Than Just Two Of Us
TTITLE12=In A Mellow Tone
TTITLE13=More Than A Feeling
TTITLE14=Don't Stop Me Now
TTITLE15=Do You Close Your Eyes
EXTD=
EXTT0=
EXTT1=
EXTT2=
EXTT3=
EXTT4=
EXTT5=
EXTT6=
EXTT7=
EXTT8=
EXTT9=
EXTT10=
EXTT11=
EXTT12=
EXTT13=
EXTT14=
EXTT15=
PLAYORDER=
